<svg width="24" height="24" viewBox="0 0 24 24" fill="none" xmlns="http://www.w3.org/2000/svg">
<path d="M10.6923 11.7379C9.73293 11.7379 8.93561 11.3512 8.38629 10.6194C7.61096 9.587 7.4083 7.99998 7.80096 6.02984C8.48895 2.57744 10.6063 0.156733 13.0689 0.00678422C14.1289 -0.0570695 15.0062 0.331075 15.5975 1.11813C16.3728 2.15055 16.5755 3.73756 16.1828 5.7077C15.4949 9.15867 13.3775 11.5794 10.9136 11.73C10.8389 11.7358 10.7649 11.7379 10.6923 11.7379ZM12.9682 1.87576L12.8769 1.87863C11.5836 1.95827 10.5069 3.53165 9.99693 6.08724C9.67827 7.68573 9.74293 8.88461 10.1783 9.46431C10.3763 9.72834 10.6563 9.8625 11.0109 9.8625L11.1042 9.85963C12.3976 9.78143 13.4735 8.20876 13.9829 5.65246C14.3015 4.05396 14.2375 2.85437 13.8029 2.27467C13.6055 2.00993 13.3242 1.87576 12.9682 1.87576ZM7.33363 24C6.79364 24 6.28565 23.6441 6.08499 23.068C5.82632 22.3262 6.17565 21.4989 6.86497 21.2206C7.08964 21.1302 12.4642 18.9907 20.5554 18.2646C21.2894 18.1958 21.9334 18.7862 21.9948 19.5754C22.0561 20.3654 21.5101 21.0584 20.7768 21.1244C13.0502 21.8175 7.85296 23.8874 7.80096 23.9082C7.64763 23.9699 7.48897 24 7.33363 24ZM1.33439 19.6945C0.798394 19.6945 0.292401 19.3444 0.0890705 18.774C-0.174926 18.0343 0.167736 17.2042 0.85506 16.9208C1.21639 16.7709 9.8656 13.2432 22.5961 12.5221C23.3381 12.4726 23.9594 13.0882 23.9981 13.8795C24.0374 14.6709 23.4721 15.3467 22.7367 15.3884C10.4549 16.0843 1.89638 19.5647 1.81105 19.5998C1.65438 19.6637 1.49305 19.6945 1.33439 19.6945Z" fill="#BB1A34"/>
</svg>
