<svg xmlns="http://www.w3.org/2000/svg" enable-background="new 0 0 132 132" viewBox="0 0 132 132"><path fill="#FFEFE1" d="M87.8,121.1H18.8c-6.6,0-12-5.4-12-12V26.7c0-6.6,5.4-12,12-12h69.1c6.6,0,12,5.4,12,12v82.4
				C99.8,115.7,94.4,121.1,87.8,121.1z"/><path fill="#FFF" d="M87.8,121.1H18.8c-6.6,0-12-5.4-12-12V26.7c0-6.6,5.4-12,12-12h69.1c6.6,0,12,5.4,12,12v82.4
				C99.8,115.7,94.4,121.1,87.8,121.1z"/><path fill="#8C7973" d="M27.4 24.2c-1 0-2-.2-2.9-.6-2.2-1-3.8-3-4.5-5.5-.5-2-.4-3.9-.3-5.6.1-1.7.2-3.8 1.3-5.7 1.4-2.5 4.2-4.1 6.9-3.8 2.3.2 4.4 1.6 5.7 3.6.9 1.6 1.2 3.2 1.5 4.7.2 1.3-.7 2.5-2.2 2.7-1.4.2-2.8-.7-3-2-.2-1.1-.4-2.3-.9-3.2-.4-.6-1-1.1-1.4-1.1 0 0 0 0 0 0-.6 0-1.3.5-1.7 1.2-.6 1.1-.7 2.5-.8 3.9-.1 1.5-.2 3 .2 4.3.3 1.1.9 2 1.7 2.4.6.3 1.4.1 1.6-.1.8-1.1 2.5-1.3 3.7-.6 1.2.7 1.5 2.2.6 3.2C31.7 23.4 29.6 24.2 27.4 24.2zM45.2 23.7c-.9 0-1.9-.2-2.8-.6-2.1-1-3.7-2.9-4.3-5.4-.5-1.9-.4-3.8-.3-5.5.1-1.7.2-3.7 1.3-5.6 1.4-2.5 4-4 6.7-3.8 2.2.2 4.3 1.5 5.4 3.6.9 1.5 1.1 3.2 1.4 4.6.2 1.3-.7 2.4-2.1 2.6-1.4.2-2.7-.7-2.9-1.9-.2-1.1-.4-2.3-.9-3.1-.3-.6-.9-1.1-1.4-1.1-.5 0-1.3.5-1.7 1.2-.6 1-.7 2.4-.8 3.8-.1 1.4-.2 2.9.1 4.2.3 1.1.9 2 1.7 2.3.6.3 1.3.1 1.5-.1.8-1 2.4-1.3 3.5-.6 1.1.7 1.4 2.1.6 3.2C49.3 22.9 47.3 23.7 45.2 23.7zM62.9 24.2c-.9 0-1.8-.2-2.7-.6-2-.9-3.5-2.9-4.1-5.2-.5-1.9-.3-3.8-.2-5.4.1-1.6.3-3.6 1.3-5.5 1.3-2.4 3.9-3.9 6.5-3.7 2.1.2 4.1 1.5 5.2 3.5.8 1.5 1.1 3.1 1.3 4.5.2 1.2-.7 2.4-2.1 2.6-1.3.2-2.6-.6-2.8-1.9-.2-1.1-.3-2.2-.8-3.1-.3-.6-.9-1-1.3-1.1-.5 0-1.2.5-1.6 1.2-.6 1-.7 2.4-.8 3.7-.1 1.4-.2 2.9.1 4.1.3 1.1.9 1.9 1.6 2.3.5.3 1.3.1 1.5-.1.8-1 2.3-1.3 3.4-.6 1.1.7 1.3 2.1.5 3.1C66.9 23.5 64.9 24.3 62.9 24.2zM79.4 24.7c-.9 0-1.7-.2-2.6-.6-1.9-.9-3.4-2.8-3.9-5.1-.4-1.9-.3-3.7-.2-5.3C72.9 12 73 10 74 8.2c1.3-2.4 3.8-3.8 6.3-3.6 2.1.2 3.9 1.5 5 3.4.8 1.5 1 3 1.2 4.4.2 1.2-.7 2.3-2 2.5-1.3.2-2.5-.6-2.6-1.8-.2-1.1-.3-2.2-.8-3-.3-.6-.8-1-1.2-1-.5 0-1.2.5-1.6 1.2-.5 1-.6 2.3-.8 3.7-.1 1.4-.2 2.8.1 4 .2 1.1.8 1.9 1.5 2.2.5.2 1.2.1 1.4-.1.8-1 2.2-1.3 3.3-.6 1 .7 1.3 2.1.5 3.1C83.2 24 81.3 24.7 79.4 24.7z"/><path fill="#9EE5E3" d="M81.3,53.8h-8c-5.6,0-10.2-4.6-10.2-10.2v-5.8c0-5.6,4.6-10.2,10.2-10.2h8c5.6,0,10.2,4.6,10.2,10.2v5.8
			C91.5,49.2,86.9,53.8,81.3,53.8z"/><path fill="#E3F8FF" d="M80.5,84.5H74c-5.6,0-10.2-4.6-10.2-10.2v-5.8c0-5.6,4.6-10.2,10.2-10.2h6.5c5.6,0,10.2,4.6,10.2,10.2v5.8
			C90.8,79.8,86.1,84.5,80.5,84.5z"/><path fill="#FF5C5C" d="M82.9,114.9h-8.3c-5.6,0-10.2-4.6-10.2-10.2v-5.8c0-5.6,4.6-10.2,10.2-10.2h8.3c5.6,0,10.2,4.6,10.2,10.2
			v5.8C93.1,110.3,88.5,114.9,82.9,114.9z"/><path fill="#FFF" d="M71.6 96.2c4.7 4 9.4 7.9 14.2 11.7-.1-.1-.2-.3-.3-.4M72.3 108.9c3.9-4.8 7.8-9.5 11.7-14.3"/><path fill="#FFF" d="M116,71.2c-3.5-2-7.8-2.4-11.8-1.9c-4,0.5-7.9,2.4-10.2,5.7c-1,1.4-1.9,3.2-3.6,3.6
				c-1.6,0.4-3.2-0.7-4.6-1.5c-2-1.2-4.2-2.2-6.4-2.8c-0.9-0.3-2-0.4-2.7,0.1c-1.1,0.8-0.9,2.5-0.3,3.7c1.6,3.4,4.8,5.7,8,7.8
				c1.4,0.9,2.9,1.9,4.6,2c3.6,0.3,6.2-3.2,8-6.4c0.9,6.3,1.8,12.7,0.4,18.9c-0.7,3.1-1.9,6-2.8,9c-1.6,4.9-2.5,10-2.8,15.1
				c-0.1,1.6,0,3.5,1.6,4.4c1,0.6,2.2,0.4,3.2-0.1c1.7-1,2.4-2.7,3-4.4c0.8-2.3,1.3-4.8,1.6-7.3c0.5-4.7,1.2-9.5,3.1-13.9
				c0,0,0,0,0,0c0.9-2,2.3-2,3.8-0.3c3,3.5,4.8,26.4,8.3,26.2c1.5-0.1,2.3-1.9,2.6-3c0.3-1.1,0.2-3.6,0-4.7
				c-1.1-10.6-2.4-21.2-4-31.8c-0.3-1.9-0.9-3.6-0.8-5.5c0-0.4,0.1-0.8,0.4-1.1c0.4-0.5,1.2-0.4,1.7-0.1c0.5,0.4,0.9,0.9,1.2,1.5
				c1.7,3.2,2.3,11.1,5.1,11c3,0,3.3-3.5,3-4.7c-0.3-1.4-0.6-2.8-0.9-4.2c-0.5-2.3-0.9-4.5-1.9-6.6C121.9,77.5,118.7,72.8,116,71.2z
				"/><ellipse cx="106.9" cy="61.9" fill="#FFF" rx="9" ry="9.4"/><path fill="#553045" d="M24.6 46.3c1.2 0 2.3-.4 3.2-1.2 1.6-1.5 3.2-7.7 6.3-2.2.7 1.2 1.7 3.1 3.6 3.3 4.4.5 4-6.2 9-5.6 3 .3 2.9 2.7 4 1.9.3-.2.4-.7.2-1-.9-1.3-2.4-2.2-4.1-2.4-5.9-.6-5.9 6-9 5.6-2.4-.3-2.8-5.8-6.5-5.5-2.7.2-3.2 3.4-4.7 4.8-1.5 1.4-4.2.8-5.6-.6-3.1-3-2.4-7.2-4-6.7-.4.1-.6.5-.5.9C18 42 19.9 46.3 24.6 46.3zM44.3 65.7c-2.6 1.8-6.1 10.8-9.5 1.8-1.2-3-2.7-4.6-4.7-4.6-3 0-4.1 3.4-5.8 5.1-3.1 2.8-8.1.3-7.5-3.9.1-1-1.4-1.2-1.5-.2-.7 5.5 5.9 9 10 5.2 1.8-1.7 2.8-4.6 4.8-4.7 0 0 0 0 0 0 3.7 0 3.1 8.5 8.1 8.5 5.1 0 5-8.2 10.5-6.2 3 1.1 2 3.4 3.4 3 .4-.1.6-.5.5-.9C51.6 65.3 47.1 63.7 44.3 65.7zM44.3 96.8c-2.3 1.6-3.6 6-6.4 5.7C34.4 102 34.9 94 30 94c-2.9 0-4 3.5-5.8 5.1-3.1 2.8-8.1.3-7.5-3.9.1-1-1.4-1.2-1.5-.2-.7 5.5 5.9 9 10 5.2 1.8-1.7 2.8-4.6 4.8-4.7 3.6-.1 3.1 8.5 8.1 8.5 5 0 5.1-8.2 10.5-6.2 1.2.5 2.2 1.4 2.5 2.5.3 1 1.7.5 1.4-.4C52.1 98.2 47.1 94.8 44.3 96.8zM73.3 54.5h8c6.1 0 11-4.9 11-11v-5.8c0-6.1-4.9-11-11-11h-8c-6.1 0-11 4.9-11 11v5.8C62.3 49.6 67.2 54.5 73.3 54.5zM63.8 37.7c0-5.2 4.3-9.5 9.5-9.5h8c5.2 0 9.5 4.3 9.5 9.5v5.8c0 5.2-4.3 9.5-9.5 9.5h-8c-5.2 0-9.5-4.3-9.5-9.5V37.7zM82.9 87.9h-8.3c-6.1 0-11 4.9-11 11v5.8c0 6.1 4.9 11 11 11h8.3c6.1 0 11-4.9 11-11v-5.8C93.9 92.8 89 87.9 82.9 87.9zM92.4 104.7c0 5.2-4.3 9.5-9.5 9.5h-8.3c-5.2 0-9.5-4.3-9.5-9.5v-5.8c0-5.2 4.3-9.5 9.5-9.5h8.3c5.2 0 9.5 4.3 9.5 9.5V104.7z"/><path fill="#553045" d="M74.1 49.3C74.1 49.3 74.1 49.3 74.1 49.3c.3 0 .4-.1.6-.3l12-14.2c.3-.3.2-.8-.1-1.1-1.1-.9-1.3.8-12.5 13.7-6.7-5.8-7.4-7.7-8.3-6.7-1 1 1.1 1.6 7.9 8.3C73.7 49.2 73.9 49.3 74.1 49.3zM85.5 106.8c-2.1-1.7-4.2-3.4-6.3-5.1 4.5-5.9 6.3-6.7 5.2-7.6-1-.9-1.5 1.1-6.4 6.6-6.3-5.2-6.4-5.8-7.1-5-.7.8 0 1 6.2 6.2l-5.4 6.6c-.4.5 0 1.2.6 1.2.7 0 .4-.2 6-6.9 7.2 5.9 7.3 6.2 8 5.6.3-.3.3-.7.1-1C86.2 107.2 86 106.8 85.5 106.8zM67.7 128.5c-.4 0-.7.4-.7.8 0 .4.4.7.8.7l20.2-1.6L67.7 128.5C67.7 128.5 67.7 128.5 67.7 128.5z"/><path fill="#553045" d="M125.5 86.1c-.5-2.3-1-4.6-1.9-6.8-1.1-2.3-3.9-7.2-7.2-8.8-.9-.4-1.9-.8-2.9-1.1 6.5-6.2 2.3-17.6-6.6-17.6-2.4 0-4.6.9-6.3 2.4V26.7c0-7-5.7-12.8-12.8-12.8H87c.7-1.5-.3-4.8-1.1-6.3-2.8-5.3-9.8-5-12.6.2-1 2-1.2 3.9-1.4 6.1h-1.7c.6-.7.8-1.5.7-2.3-.2-1.5-.5-3.1-1.4-4.8-3-5.4-10.2-5-13 .2-1.1 2.1-1.3 4.4-1.4 6.9h-3.3c1.1-.6 1.8-1.8 1.6-3.1-.2-1.5-.5-3.2-1.5-4.8-3.1-5.5-10.5-5.2-13.4.2-1.2 2.2-1.4 5.2-1.5 7.8h-2.3c.8-.6 1.4-1.7 1.1-2.9-.3-1.5-.6-3.2-1.6-4.9C31 .6 23.4.9 20.4 6.4c-1.2 2.2-1.4 4.8-1.5 7.6h-.1c-7 0-12.7 5.7-12.7 12.8v82.4c0 7 5.7 12.8 12.7 12.8 72.4-.2 69.3.5 72.6-.5-.6 3-1.1 6.7 1.5 8.1 1.3.7 2.8.5 4.1-.2 3.3-2 3.9-7 4.5-10.7.9-5.5 2.4-16 4.9-16 .5 0 .9.8 1.1 1.3.5 1 2.4 9 3.9 14.9 1.4 5.8 2 8.1 2.2 8.4 1 2.1 2.2 2.6 3 2.6 2.1 0 3.3-2.7 3.3-4.9-.1-1.7-2.5-25.3-4-35.4-.2-1.2-1.5-6.1-.3-6.1 2.4 0 2.7 9.7 5.7 11.9 1.2.9 2.8.9 3.8.3C125.9 94.8 126.4 90.3 125.5 86.1zM106.8 53.3c9.3 0 11.4 13.7 2.7 16.8-7.7 2.9-14.5-6.9-9-13.7C102.1 54.5 104.3 53.3 106.8 53.3zM84.6 8.4c.7 1.4 1 2.9 1.1 4.2.1.5-.2 1.1-.6 1.4-.6.4-1.4.4-2 0-1-.8-.3-2.2-1.4-4.2-1.5-2.8-5-1.4-5 4.2-.1 1.4-.2 2.9.1 4.1.7 3 3.3 3.6 4.3 2.4.8-1 2.6-.8 2.9.5.3 1.6-2.5 3-4.4 3-.1 0-1.2.1-2.4-.5-3.6-1.7-4-5.6-3.7-9.5C73.5 4.5 81.8 3.1 84.6 8.4zM81.3 13.9h-3c.1-1.2.3-3.9 1.5-4.1C80.8 10.1 81 13.2 81.3 13.9zM57.9 7.8c2.3-4.3 7.9-4.5 10.4-.2.8 1.4 1 2.9 1.2 4.2.3 1.9-3 2.4-3.3.5-.3-2-.8-4.6-2.9-4.8-.8 0-1.8.7-2.3 1.6-.8 1.5-1 5.3-1 6.3 0 4.9 3.5 5.8 4.6 4.4.8-1.1 2.8-.8 3 .6.6 3.5-11.8 6.4-11-6.5C56.8 11.7 56.9 9.6 57.9 7.8zM65.3 13.9h-3.7c.1-1.2.1-3.1.7-4.1C62.6 9.3 63.1 9 63.2 9c.1 0 .5.2.7.7C64.7 11.2 64.3 12.8 65.3 13.9zM39.8 6.9c2.4-4.3 8.3-4.6 10.8-.2.8 1.4 1.1 3 1.3 4.3.3 2-3.2 2.5-3.5.5-.3-2-.9-4.7-3-4.9-.8 0-1.8.7-2.3 1.6-.9 1.6-1 5.9-.9 7.2.4 4.5 3.8 5.1 4.7 3.8 1.3-1.7 4.3 0 2.9 1.7-3 3.9-11.7 2.4-11.4-7C38.5 13.3 38.8 8.8 39.8 6.9zM48.5 13.9h-4.8c.1-6.2 2.2-8.1 3.3-2.2C47.1 12.7 47.7 13.5 48.5 13.9zM21.7 7.1c2.5-4.5 8.7-4.6 11.3-.1.9 1.5 1.1 3 1.4 4.4.3 2.1-3.3 2.5-3.7.5-.3-2-1-4.8-3-4.9-.1 0-1.5-.1-2.4 1.6-1 1.8-1.2 6.8-.7 8.7.8 3.1 3.7 3.7 4.7 2.5 1.4-1.7 4.5 0 3.1 1.7-3 3.9-12.3 2.7-11.9-7.5C20.5 11.5 20.7 8.9 21.7 7.1zM30.3 13.9h-4.6c.2-6.6 2.4-7.5 3.4-1.9C29.3 12.8 29.7 13.5 30.3 13.9zM18.8 120.4c-6.2 0-11.2-5.1-11.2-11.3V26.7c0-6.2 5-11.3 11.2-11.3h.1c.3 9.8 10.7 11.9 14.6 6.9 1.1-1.4.7-3.4-.8-4.3-1.4-.9-3.5-.6-4.6.7-1 .4-2.2-1-2.3-3.3H37c.5 9.5 10.3 11.2 14 6.4 1-1.3.8-3.3-.8-4.3-1.4-.9-3.5-.6-4.5.7-1.1.4-2-1.3-2.1-2.8h11.4c0 10 9.9 11.8 13.5 7 .5-.7.7-1.5.6-2.3-.5-2.7-4-3.3-5.7-1.3-1.3.4-2-1.8-2-3.5h10.3c-.2 5.1 1.9 8 4.6 9.3.9.4 1.9.7 2.9.7h.2c2.2 0 4.1-.9 5.3-2.5.5-.7.7-1.4.6-2.2-.1-.8-.6-1.5-1.3-1.9C82.9 18 81 18.3 80 19.5c-.1 0-.4.1-.6 0-.5-.2-.9-.9-1.1-1.7-.2-.7-.2-1.5-.1-2.3h4.6c.8.4 1.9.4 2.8 0h2.3c6.2 0 11.3 5 11.3 11.3v29.2c-2.6 3.6-2.6 8.5 0 12.2v2c-5.6 2.6-6.2 6.5-8.1 7.7.9-2.7.4-4.3.6-9.3 0-6.1-4.9-11-11-11H74c-6.1 0-11 4.9-11 11v5.8c0 6.1 4.9 11 11 11 6.5 0 6.8.1 7.9-.1 2.3 1.7 4.7 3.4 6.9 3.5 2.8.2 5.3-1.4 7.6-4.9 2 17.4-1.4 20.9-4.7 35.9C90.5 120.1 90.5 120.1 18.8 120.4zM85.5 64.2l-6.2 9.3c-2.4-.6-3.7.4-4 2.1-6-5.1-6.7-7-7.6-5.9-1 1 1.2 1.7 7.8 8.2v0c.6 2.2 2.9 4.5 4.6 6H74c-5.2 0-9.5-4.3-9.5-9.5v-5.8c0-5.2 4.3-9.5 9.5-9.5h6.5c5.2 0 9.5 4.3 9.5 9.5-.2 4.8.4 6.7-.8 9.5-2-.4-3.5-2.4-8.4-4l5.9-8.9C87.3 64.2 86 63.4 85.5 64.2zM121 92.6c-.9-2.1-1.7-5.9-2.8-8.6-1.4-3.2-4.5-2.7-4.7-.1-.2 2 .5 3.8.8 5.7 1.6 10.1 4 33.5 4 35.2.1 1.1-.3 2.3-.9 2.9-1 1-1.8 0-2.4-1.3-.2-.4-1.1-4.4-2.1-8.2-3.6-14.6-3.9-17.3-6.5-17.3-1.5 0-2.7 1.7-2.8 2-3.8 8-2.5 21.9-7.3 24.9-.8.5-1.8.6-2.6.2-1.9-1.1-1.1-5.1-.6-7.4 3.1-15.3 7.5-19.3 4.6-39.4-.1-.7-1.1-.9-1.4-.3-4.7 8.6-8.4 6.2-12.3 3.5-2.7-1.8-5.4-3.9-6.8-6.9-.7-1.6-.5-3.2 1.3-3 .3 0 .7.1.9.2 8.8 2.4 9.9 8.6 15.4.4 1.7-2.4 4.3-4 7.1-4.9 3.1 2 7 2 10.2 0 1.3.3 2.5.8 3.7 1.3 3 1.4 5.7 6.3 6.5 8 1.1 2.4 1.6 5.1 2.7 10.7C125.8 95.3 122.1 95.2 121 92.6zM119.8 49.5c2.1 1.2 2.6 1.9 3.5 3.9.7 1.6.9 4.9-.3 8.5-1.1 3-1.5 2.4-1.3 2.5-.2-.1.2.4 1.5-2.4 2.2-5.2 2-10.6-2.7-13.8-.5-.3-1.3-.9-1.7-.1C118.6 48.5 119.3 49.3 119.8 49.5z"/></svg>