<svg xmlns="http://www.w3.org/2000/svg" width="32" height="32" viewBox="0 0 32 32"><g stroke="#586597" transform="translate(-1387.75 -749.362)"><path fill="#d1edf1" stroke="none" d="m 1415.75,750.86229 v 28.99996 h -24 v -28.99996 z"/><path fill="#fb848a" stroke="none" d="m 1413,771.86261 a 5.750001,5.7395854 0 0 1 -5.75,5.73959 5.750001,5.7395854 0 0 1 -5.75,-5.73959 5.750001,5.7395854 0 0 1 5.75,-5.73959 5.750001,5.7395854 0 0 1 5.75,5.73959 z"/><path fill="none" stroke-linecap="round" stroke-linejoin="round" d="m 1409.75,750.86229 h 6 v 28.99996 h -24 v -28.99996 h 12 3"/><path fill="none" stroke-linecap="round" stroke-linejoin="round" d="M1413 771.86261a5.750001 5.7395854 0 0 1-5.75 5.73959 5.750001 5.7395854 0 0 1-5.75-5.73959 5.750001 5.7395854 0 0 1 5.75-5.73959 5.750001 5.7395854 0 0 1 5.75 5.73959zM1395.5395 750.87124v28.982"/><path fill="none" stroke-linecap="round" stroke-linejoin="round" d="M1404.75 774.11263v-4.25l3.25 3M1404.75 773.11263l2.25-1M1408.5071 770.36263h2.4861M1392.0071 755.86214h23.4858M1392.0071 759.86214h23.4858M1392.0071 763.86214h23.4858M1413.5 767.8622l1.9932-.00006M1414.75 771.8622l.7429-.00006M1413.5 775.8622l1.9929-.00006M1392 767.86224l9-.00004M1392.0071 771.86214l7.7429.00006M1392.0071 775.86214l8.9929.00006M1409.7502 769.11953v2.4862"/></g></svg>