<svg xmlns="http://www.w3.org/2000/svg" width="32" height="32" viewBox="0 0 32 32"><g transform="translate(1579.744 611.663)"><path fill="#fcbf86" fill-rule="evenodd" d="m -1549.7442,-595.4129 h -9.5 v -7 h -9 v 6.75 h -9.5 v 6.75 h 28 z"/><g stroke="#586597" transform="translate(-1579.744 -1638.525)"><path fill="none" stroke-linecap="round" stroke-linejoin="round" stroke-width="3.168" d="m 24,-1038.0673 v -5.9999 l -5.706339,1.854 5.706322,-1.8541 -3.526695,-4.8541 3.526702,4.8541 3.526721,-4.8541 -3.526701,4.8541 5.706329,1.8541 -5.706322,-1.8541 z" transform="matrix(.30953 0 0 -.32183 8.571 710.283)"/><path fill="none" stroke-linecap="round" stroke-linejoin="round" d="m 20.75,1038.3622 v -2.75 h -9.5 v 7.25 h -9.5 v 7.25 h 28.5 v -7 h -9.5 v -1.25"/><path fill="none" stroke-linecap="round" stroke-linejoin="round" d="M24.50005 1045.3695v2.4856M22.50005 1045.3695v2.4856M26.50005 1045.3695v2.4856" transform="translate(1)"/><path fill="none" stroke-linecap="round" stroke-linejoin="round" d="M8.50005 1045.3695v2.4856M6.50005 1045.3695v2.4856" transform="translate(-1)"/><path fill="none" stroke-linecap="round" stroke-linejoin="round" d="m 16.00005,1038.3695 v 2.4856"/></g></g></svg>