<svg width="24" height="24" viewBox="0 0 24 24" fill="none" xmlns="http://www.w3.org/2000/svg">
<path d="M1.15239 14.1171C0.741061 14.1171 0.517064 13.9364 0.401066 13.7847C0.287068 13.6357 0.169069 13.3717 0.251068 12.9623L2.06971 3.99355L0.927059 4.06201H0.918392C0.57373 4.06201 0.323734 3.94343 0.167069 3.73802C0.0204048 3.54602 -0.0322611 3.29968 0.0197381 3.04627C0.119737 2.55075 0.608396 2.13852 1.13106 2.10817L3.80302 1.94794C3.85502 1.94441 3.90302 1.94229 3.94768 1.94229C4.04568 1.94229 4.30501 1.94229 4.46968 2.15828C4.63767 2.37852 4.58101 2.65875 4.56234 2.75051L2.4797 13.0259C2.35504 13.6498 1.86705 14.0769 1.23572 14.1143L1.15239 14.1171ZM8.31429 12.7054C7.35497 12.7054 6.55765 12.3249 6.00832 11.6049C5.233 10.5892 5.03033 9.02781 5.42299 7.08949C6.11098 3.69284 8.22829 1.31124 10.6909 1.16371C11.7509 1.10089 12.6282 1.48277 13.2196 2.25711C13.9949 3.27285 14.1975 4.83424 13.8049 6.77255C13.1169 10.1678 10.9996 12.5494 8.53562 12.6976C8.46095 12.7033 8.38695 12.7054 8.31429 12.7054ZM10.5903 3.0025L10.4989 3.00533C9.20561 3.08368 8.12896 4.63165 7.61896 7.14596C7.3003 8.71863 7.36497 9.89814 7.80029 10.4685C7.99829 10.7282 8.27829 10.8602 8.63295 10.8602L8.72628 10.8574C10.0196 10.7805 11.0956 9.23321 11.6049 6.7182C11.9236 5.14552 11.8596 3.96531 11.4249 3.39497C11.2276 3.1345 10.9462 3.0025 10.5903 3.0025ZM18.3175 11.5485C17.3582 11.5485 16.5595 11.168 16.0095 10.4473C15.2342 9.43156 15.0315 7.87018 15.4242 5.93186C16.1128 2.53451 18.2301 0.153616 20.6928 0.00679476C21.7614 -0.0567335 22.6281 0.326554 23.2194 1.10019C23.9947 2.11593 24.1974 3.67732 23.8047 5.61493C23.1174 9.00945 21.0008 11.3911 18.5368 11.5414C18.4621 11.5471 18.3895 11.5485 18.3175 11.5485ZM20.5914 1.84488L20.5008 1.8477C19.2068 1.92605 18.1301 3.47403 17.6208 5.98763C17.3022 7.56101 17.3668 8.74122 17.8022 9.31086C18.0001 9.57062 18.2815 9.70262 18.6361 9.70262L18.7295 9.69979C20.0221 9.62285 21.0988 8.07488 21.6081 5.56058C21.9274 3.9886 21.8634 2.80839 21.4281 2.23805C21.2294 1.97688 20.9481 1.84488 20.5914 1.84488ZM7.33363 24C6.79364 24 6.28565 23.6499 6.08499 23.0831C5.82632 22.3532 6.17565 21.5393 6.86497 21.2655C7.08964 21.1765 12.4642 19.0716 20.5554 18.3573C21.2894 18.2895 21.9334 18.8704 21.9948 19.6469C22.0561 20.4241 21.5101 21.1059 20.7768 21.1709C13.0502 21.8527 7.85296 23.8892 7.80096 23.9097C7.64763 23.9704 7.48897 24 7.33363 24ZM1.33439 19.7641C0.798394 19.7641 0.292401 19.4196 0.0890705 18.8584C-0.174926 18.1307 0.167736 17.314 0.85506 17.0352C1.21639 16.8877 9.8656 13.4169 22.5961 12.7075C23.3381 12.6588 23.9594 13.2644 23.9981 14.043C24.0374 14.8216 23.4721 15.4865 22.7367 15.5275C10.4549 16.2121 1.89638 19.6363 1.81105 19.6709C1.65438 19.7337 1.49305 19.7641 1.33439 19.7641Z" fill="#BB1A34"/>
</svg>
