<svg xmlns="http://www.w3.org/2000/svg" enable-background="new 0 0 132 132" viewBox="0 0 132 132"><path fill="#D62121" d="M35,24c-0.3,0-0.6-0.2-0.7-0.6L30.5,7.9C30.4,7.5,30.6,7.1,31,7c0.4-0.1,0.8,0.1,0.9,0.6l3.8,15.5
				c0.1,0.4-0.1,0.8-0.6,0.9C35.1,24,35,24,35,24z"/><path fill="#FFEFE1" d="M88.8,129.2H19.7c-7,0-12.6-5.6-12.6-12.6V23.4c0-7,5.6-12.6,12.6-12.6h81.7v105.8
				C101.4,123.6,95.8,129.2,88.8,129.2z"/><path fill="#FDE4CB" d="M85.9,121.1H22.6c-3.5,0-6.3-2.8-6.3-6.3V25.3c0-3.5,2.8-6.3,6.3-6.3h69.5v95.8
				C92.1,118.3,89.3,121.1,85.9,121.1z"/><polygon fill="#FFF" points="101.4 61 74.4 36.2 101.3 10.9"/><path fill="#D62121" d="M30.5,30.2c-1.7,0-3.2-1-3.8-2.6l-6-16.5c-1-2.8-0.6-5.4,1.1-7.2c1.4-1.5,3.5-2.2,5.5-1.7
				c2.3,0.6,4,2.5,4.7,5.4C32,8,31.8,8.4,31.4,8.5c-0.4,0.1-0.8-0.1-0.9-0.5c-0.6-2.3-1.9-3.9-3.6-4.3c-1.5-0.4-3,0.1-4,1.2
				c-1.3,1.4-1.5,3.5-0.7,5.7l6,16.5c0.4,1.2,1.9,1.9,3.2,1.5c1.1-0.3,1.8-1.4,1.5-2.5l-3.5-13c-0.2-0.6-0.5-1.1-1-1.4
				c-0.4-0.2-0.9-0.3-1.3-0.2c-0.4,0.1-0.8,0.4-1,0.9c-0.3,0.5-0.3,1.2-0.1,1.7l3.2,9.1c0.1,0.4-0.1,0.8-0.5,1
				c-0.4,0.1-0.8-0.1-1-0.5l-3.2-9.1c-0.3-1-0.3-2,0.2-2.9c0.4-0.8,1.1-1.4,1.9-1.6c0.8-0.2,1.7-0.1,2.5,0.3
				c0.9,0.5,1.5,1.3,1.8,2.3l3.5,13c0.5,1.8-0.6,3.7-2.5,4.3C31.3,30.1,30.9,30.2,30.5,30.2z"/><path fill="#FFCADE" d="M107.8,56.2c1.8-1.5,4.8-1.9,7.2-0.9c2.4,1,5.2,3.2,6.1,5.7c0.9,2.5,0.7,6.2-1.2,8.2
				c-4.3,4.5-28.2,30.6-35.7,33.5c-6.3,2.5-12.3,4.3-18.4,6c0.6-1.8,4-8.6,5.7-13.6c1-2.8,2.5-5.2,4.4-7
				C78.1,85.9,107.5,56.2,107.8,56.2z"/><path fill="#FFF036" d="M119.8,69.4L119.8,69.4l-1.8,1.8c-1,1-2.7,0.8-3.8-0.3l-8.6-8.9c-0.9-0.9-1-2.3-0.3-3.3
				c1.3-1.3,2.1-2,2.1-2c1.8-1.5,4.8-1.9,7.2-0.9c2.4,1,5.1,3.3,6.1,5.7C121.6,64,121.5,67.4,119.8,69.4z"/><path fill="#FBE000" d="M120,70.1L120,70.1l-2,1.9c-0.3,0.3-0.7,0.5-1.1,0.6l0.4-0.4l0,0c1.7-2.1,1.9-5.8,1-8.3
				c-0.9-2.6-3.8-5.1-6.3-6.1c-2.1-0.9-4.6-0.8-6.5,0.2c0.9-0.9,1.4-1.4,1.5-1.4c1.9-1.6,5.1-2,7.6-1c2.5,1,5.4,3.5,6.4,6.1
				C121.9,64.3,121.7,67.9,120,70.1z"/><path fill="#FFF036" d="M73.4,106.8l-7.9,2.3l2.7-6.2C69.8,99.8,74.2,103.3,73.4,106.8z"/><path fill="#553045" d="M64.8 93L28 92.4c0 0 0 0 0 0-.4 0-.7.4-.7.8 0 .4.4.7.8.7L64.8 93zM28.1 76.5l46.4-2.2L28 75c0 0 0 0 0 0-.4 0-.7.4-.7.8C27.3 76.2 27.6 76.5 28.1 76.5zM28.7 54.3L75 52.1l-46.4.7c0 0 0 0 0 0-.4 0-.7.4-.7.8C27.9 54 28.2 54.3 28.7 54.3zM123.3 56.9c-.3-.3-.4-.4-.4-.4-.8-.6-1.7.6-.9 1.2-.1 0 2.4 1.3 3 4.9.4 2.4-.3 5.2-.4 6.2.4-1.4 1.3-3.8 1.2-6.2C125.6 60.4 124.8 58.3 123.3 56.9zM106.9 64.6c-8.2 6.6-23.8 23.2-26 26.4C88 85.3 104.3 68.3 106.9 64.6zM81.6 100.1c6.2-5 21-19.4 27-26.9C103.8 77.1 85.1 95.7 81.6 100.1z"/><path fill="#553045" d="M111.8,54.5c-3.7,0-5.1,1.9-7,3.7h0c0,0,0,0,0,0c-0.7,0.7-1.6,1.6-2.6,2.6c0-10,0-25.9,0-50
				c0-0.4-0.3-0.8-0.8-0.8H19.7c-7.3,0-13.3,6-13.3,13.4v93.2c0,7.4,6,13.3,13.3,13.3h69.1c7.3,0,13.3-6,13.3-13.3V88.9
				c6.8-6.8,18.1-18.7,18.3-19c1.9-2.3,2-6.1,1-8.6C120.3,58.2,116.1,54.5,111.8,54.5z M100.7,59.3L75.5,36.2l25.1-23.6L100.7,59.3z
				 M100.7,116.7c0,6.5-5.3,11.8-11.8,11.8H19.7c-6.5,0-11.8-5.3-11.8-11.8V23.5c0-6.5,5.3-11.9,11.8-11.9h79.8L73.9,35.7
				c-0.2,0.1-0.2,0.3-0.2,0.5c0,0.2,0.1,0.4,0.3,0.5l26.8,24.5v1c-35.1,35-25.9,24.1-34.2,42.5c-1.8,4-1.9,4.2-1.6,4.6c0,0,0,0,0,0
				l-36.3-0.6c0,0,0,0,0,0c-0.4,0-0.7,0.4-0.7,0.8c0,0.4,0.4,0.7,0.8,0.7l36.3-0.9c0,0.1,0,0,0,0c0,0,0,0,0,0c0,0,0.1,0.1,0.1,0.1
				c0.3,0.3,0.3,0.3,8.5-2.2h0c11.9-3.7,13.3-3.8,27-17.2V116.7z M71.9,103.6c0.6,0.8,0.9,1.8,0.9,2.6l-5.9,1.7
				c0.8-1.8,1.9-4.5,2-4.7C69.2,102.7,71,102.5,71.9,103.6z M69.9,101c2.8-6.6,1.6-4.7,3.6-8.5c0.1,4.8,3.3,9.7,8.2,10.7
				c0,0,0,0,0,0c0,0,0,0,0,0c-2.6,1-5,1.8-7.3,2.5C74.1,102.8,71.2,100.5,69.9,101z M82.9,102.8c-5-1.5-7.5-5.9-9.1-10.8
				c0.7-1.1,1.5-2.1,2.4-3c0.8-0.8,26-26,28.1-28.1c0.1,0.6,0.4,1.2,0.9,1.6c8.5,8.5,8.6,9.7,10.7,10.1
				C110.1,78.7,90.2,100,82.9,102.8z M119.3,68.9c-4.3,3.6-1.7,4-13-7.4c-0.6-0.6-0.7-1.6-0.3-2.3c0.1-0.1,1.8-1.7,2-1.9
				c0.2-0.1,1.2-1.3,3.9-1.3c3.5,0,7.3,3.2,8.2,5.8C120.5,63.1,120.7,67.1,119.3,68.9z"/></svg>